<svg enable-background="new 0 0 512 512" height="512" viewBox="0 0 512 512" width="512" xmlns="http://www.w3.org/2000/svg"><g id="_x31_4_x2C__expand_x2C__arrow_x2C__sign_x2C__direction"><g id="XMLID_208_"><path id="XMLID_46_" d="m256 31c124.26 0 225 100.74 225 225s-100.74 225-225 225-225-100.74-225-225 100.74-225 225-225z" fill="#ffd15d"/><path id="XMLID_45_" d="m394.534 252.463-42.428-42.428c-1.953-1.953-5.118-1.953-7.071 0-1.953 1.952-1.953 5.118 0 7.07l33.894 33.895h-245.858l33.895-33.895c1.953-1.952 1.953-5.118 0-7.07-1.952-1.952-5.117-1.953-7.071 0l-42.428 42.428c-1.96 1.959-1.943 5.133 0 7.074l42.428 42.428c1.953 1.953 5.118 1.953 7.071 0 1.953-1.952 1.953-5.118 0-7.07l-33.895-33.895h245.857l-33.895 33.895c-1.953 1.952-1.953 5.118 0 7.07 1.953 1.953 5.118 1.953 7.071 0l42.428-42.428c1.903-1.899 1.987-5.091.002-7.074z" fill="#fefefe"/></g></g></svg>